<svg width="66" height="50" viewBox="0 0 66 50" fill="none" xmlns="http://www.w3.org/2000/svg">
<g clip-path="url(#clip0_3116_12347)">
<path d="M1.33331 6.99963C1.33331 5.89506 2.22874 4.99963 3.33331 4.99963H51.3333C52.4379 4.99963 53.3333 5.89506 53.3333 6.99963V14.9996H1.33331V6.99963Z" stroke="#A58B5F" stroke-width="2"/>
<circle cx="6.33331" cy="9.99963" r="1" stroke="#A58B5F" stroke-width="2"/>
<circle cx="12.3333" cy="9.99963" r="1" stroke="#A58B5F" stroke-width="2"/>
<circle cx="18.3333" cy="9.99963" r="1" stroke="#A58B5F" stroke-width="2"/>
<rect x="1.33331" y="14.9996" width="26" height="15" stroke="#A58B5F" stroke-width="2"/>
<path d="M42.5 29.9996H27.3333V14.9996H53.3333V20.4996" stroke="#A58B5F" stroke-width="2"/>
<rect x="1.33331" y="29.9996" width="26" height="15" stroke="#A58B5F" stroke-width="2"/>
<path d="M41.3333 29.9996H27.3333V44.9996H48.3333" stroke="#A58B5F" stroke-width="2"/>
<path d="M57.3333 40.9892L56.9042 40.0859L56.3333 40.3571V40.9892H57.3333ZM48.3333 40.9892H49.3333V40.3571L48.7624 40.0859L48.3333 40.9892ZM48.3333 44.9996H47.3333V45.9996H48.3333V44.9996ZM57.3333 44.9996V45.9996H58.3333V44.9996H57.3333ZM62.3333 31.4996C62.3333 35.2878 60.1161 38.5601 56.9042 40.0859L57.7624 41.8924C61.6454 40.0479 64.3333 36.0886 64.3333 31.4996H62.3333ZM52.8333 21.9996C58.08 21.9996 62.3333 26.2529 62.3333 31.4996H64.3333C64.3333 25.1484 59.1846 19.9996 52.8333 19.9996V21.9996ZM43.3333 31.4996C43.3333 26.2529 47.5866 21.9996 52.8333 21.9996V19.9996C46.482 19.9996 41.3333 25.1484 41.3333 31.4996H43.3333ZM48.7624 40.0859C45.5505 38.5601 43.3333 35.2878 43.3333 31.4996H41.3333C41.3333 36.0886 44.0213 40.0479 47.9042 41.8924L48.7624 40.0859ZM49.3333 44.9996V40.9892H47.3333V44.9996H49.3333ZM57.3333 43.9996H48.3333V45.9996H57.3333V43.9996ZM56.3333 40.9892V44.9996H58.3333V40.9892H56.3333Z" fill="#AB0000"/>
<path d="M48.3333 48.9996H57.3333" stroke="#AB0000" stroke-width="2" stroke-linecap="square"/>
</g>
<defs>
<clipPath id="clip0_3116_12347">
<rect width="65" height="49.9999" fill="white" transform="translate(0.333313 -0.000366211)"/>
</clipPath>
</defs>
</svg>
