<svg width="65" height="50" viewBox="0 0 65 50" fill="none" xmlns="http://www.w3.org/2000/svg">
<g clip-path="url(#clip0_3116_12269)">
<path d="M1 4.99976H18.3333C22.0152 4.99976 25 7.98452 25 11.6664V44.9998H1V4.99976Z" stroke="#A58B5F" stroke-width="2"/>
<path d="M39 44.9998H25V11.6664C25 7.98452 27.9848 4.99976 31.6667 4.99976H49V24.9998" stroke="#A58B5F" stroke-width="2"/>
<path d="M29.0001 13.0004H45.0001" stroke="#A58B5F" stroke-width="2"/>
<path d="M29.0001 18.6014H39.0001" stroke="#A58B5F" stroke-width="2"/>
<path d="M5.00006 13.0004H21.0001" stroke="#A58B5F" stroke-width="2"/>
<path d="M5.00006 18.6014H21.0001" stroke="#A58B5F" stroke-width="2"/>
<path d="M5.00006 24.1986H21.0001" stroke="#A58B5F" stroke-width="2"/>
<path d="M36.5 28.9998L49 23.9998L61.5 28.9998M36.5 28.9998L49 33.9998M36.5 28.9998V43.9998L49 48.9998M61.5 28.9998L49 33.9998M61.5 28.9998V43.9998L49 48.9998M49 33.9998V48.9998" stroke="#AB0000" stroke-width="2"/>
</g>
<defs>
<clipPath id="clip0_3116_12269">
<rect width="65" height="49.9999" fill="white" transform="translate(0 -0.000244141)"/>
</clipPath>
</defs>
</svg>
