<svg width="142" height="50" viewBox="0 0 142 50" fill="none" xmlns="http://www.w3.org/2000/svg">
<g clip-path="url(#clip0_2124_1138)">
<path fill-rule="evenodd" clip-rule="evenodd" d="M7.24258 12.5298C3.90602 16.2254 1.87677 21.1123 1.87677 26.4733C1.87677 31.8344 3.90602 36.7213 7.24258 40.4169L5.96257 41.5634C2.35287 37.5652 0.155334 32.2739 0.155334 26.4733C0.155334 20.6728 2.35287 15.3814 5.96257 11.3833L7.24258 12.5298ZM43.7651 26.4733C43.7651 21.1123 41.7358 16.2254 38.3993 12.5298L39.6793 11.3833C43.289 15.3814 45.4865 20.6728 45.4865 26.4733C45.4865 32.2739 43.289 37.5652 39.6793 41.5634L38.3993 40.4169C41.7358 36.7213 43.7651 31.8344 43.7651 26.4733Z" fill="white"/>
<path fill-rule="evenodd" clip-rule="evenodd" d="M22.8209 1.55908L39.7484 7.58053V49.0489H5.89343V7.58053L22.8209 1.55908ZM7.61487 8.78883V47.3343H38.0269V8.78883L22.8209 3.37973L7.61487 8.78883Z" fill="white"/>
<path fill-rule="evenodd" clip-rule="evenodd" d="M12.0906 21.0439H16.1309C17.6281 21.0439 18.9192 22.0917 19.2218 23.5521L19.5907 25.3327L20.6601 30.7599H24.9818L26.0512 25.3327L26.4201 23.5521C26.7227 22.0917 28.0138 21.0439 29.5109 21.0439H33.5512V23.2157C33.5512 24.9518 32.1383 26.3592 30.3953 26.3592H27.6032L26.4609 32.1563L23.6817 33.8172V35.6519L30.3111 38.8469L29.5613 40.3903L22.8209 37.1418L16.0806 40.3903L15.3308 38.8469L21.9602 35.6519V33.8172L19.1809 32.1563L18.0387 26.3592H15.2466C13.5036 26.3592 12.0906 24.9518 12.0906 23.2157V21.0439ZM17.6904 24.6446H15.2466C14.4543 24.6446 13.8121 24.0049 13.8121 23.2157V22.7585H16.1309C16.8115 22.7585 17.3983 23.2348 17.5359 23.8986L17.6904 24.6446ZM27.9515 24.6446H30.3953C31.1875 24.6446 31.8298 24.0049 31.8298 23.2157V22.7585H29.5109C28.8304 22.7585 28.2435 23.2348 28.106 23.8986L27.9515 24.6446Z" fill="white"/>
<path fill-rule="evenodd" clip-rule="evenodd" d="M6.75415 9.0415H38.8877V10.7561H6.75415V9.0415Z" fill="white"/>
<path fill-rule="evenodd" clip-rule="evenodd" d="M6.75415 42.7617H38.8877V44.4763H6.75415V42.7617Z" fill="white"/>
<path fill-rule="evenodd" clip-rule="evenodd" d="M11.2872 15.0427V9.89893H13.0087V15.0427H11.2872Z" fill="white"/>
<path fill-rule="evenodd" clip-rule="evenodd" d="M16.6811 15.0427V9.89893H18.4025V15.0427H16.6811Z" fill="white"/>
<path fill-rule="evenodd" clip-rule="evenodd" d="M22.0749 15.0427V9.89893H23.7963V15.0427H22.0749Z" fill="white"/>
<path fill-rule="evenodd" clip-rule="evenodd" d="M11.2148 14.1855H34.427L39.7484 22.5673V29.1718L27.5986 44.4765H18.0432L5.89343 29.1718V22.5673L11.2148 14.1855ZM12.163 15.9001L7.61487 23.0639V28.5758L18.8766 42.7619H26.7652L38.0269 28.5758V23.0639L33.4788 15.9001H12.163Z" fill="white"/>
<path fill-rule="evenodd" clip-rule="evenodd" d="M27.4688 15.0427V9.89893H29.1902V15.0427H27.4688Z" fill="white"/>
<path fill-rule="evenodd" clip-rule="evenodd" d="M32.7479 15.0427V9.89893H34.4693V15.0427H32.7479Z" fill="white"/>
<path fill-rule="evenodd" clip-rule="evenodd" d="M10.4839 43.6191V34.4746H12.2053V43.6191H10.4839Z" fill="white"/>
<path fill-rule="evenodd" clip-rule="evenodd" d="M33.4363 43.6191V34.4746H35.1578V43.6191H33.4363Z" fill="white"/>
<path d="M81.2235 34.2755C81.2235 36.601 81.4271 38.1068 82.2136 39.0575C82.969 39.9706 84.369 40.4847 87.1143 40.4987L92.5874 37.4285L92.1101 36.4646C90.8554 37.0842 89.7348 37.5428 88.2972 37.5428C87.1026 37.5428 86.2846 37.088 85.7849 36.3707C85.3045 35.6809 85.1588 34.8061 85.1588 34.019V18.5422H92.7798V17.1249H85.108V10.0967H84.4185L81.3759 13.1689V16.7658H77.8137L76.2953 18.299V18.5422H81.2235V34.2755Z" fill="white"/>
<path d="M65.2221 40.4989C68.1148 39.8614 70.409 39.1212 71.9793 38.0095C73.5231 36.9165 74.3759 35.4597 74.3759 33.3008C74.3759 31.9147 74.053 30.7915 73.3481 29.8092C72.6365 28.8176 71.5105 27.9343 69.8426 27.0796L65.9293 25.0783C64.779 24.4846 63.8368 23.9069 63.1815 23.2452C62.51 22.5672 62.1316 21.7921 62.1316 20.8347C62.1316 19.6969 62.6875 18.8126 63.5057 18.2277C64.313 17.6506 65.3738 17.3622 66.4385 17.3622C68.389 17.3622 69.9979 18.2325 70.5307 18.5554L70.6758 18.6433L71.7975 22.2871H73.7155V17.8335C72.2626 16.8422 69.5584 15.7535 67.0449 15.7399C64.1399 16.3755 61.9276 17.1779 60.4474 18.229C58.9821 19.2695 58.2471 20.5409 58.2471 22.1685C58.2471 24.7941 60.1484 26.6255 62.2737 27.7235L62.276 27.7247L66.2898 29.828C67.6075 30.5189 68.5992 31.1136 69.2542 31.8172C69.9377 32.5513 70.2374 33.3827 70.2374 34.4807C70.2374 35.6516 69.8637 36.7445 69.0902 37.5474C68.3132 38.354 67.1738 38.8253 65.7272 38.8253C64.0006 38.8253 62.442 38.2273 61.3123 37.4668L61.1993 37.3908L59.5336 33.2848H57.1081L57.9522 38.3539C59.3407 39.1292 62.3838 40.4838 65.2221 40.4989Z" fill="white"/>
<path fill-rule="evenodd" clip-rule="evenodd" d="M141.433 38.7907L135.646 39.9233L133.994 35.7799L127.602 40.4981C125.562 40.4714 123.859 39.8822 122.664 38.8616C121.449 37.8235 120.725 36.3091 120.725 34.3781C120.725 32.7077 121.297 31.4857 122.335 30.0352L133.934 26.1311V23.2458C133.934 21.7269 133.878 20.3897 133.42 19.4362C133.182 18.9395 132.831 18.537 132.329 18.2655C131.834 17.9981 131.224 17.8753 130.491 17.8753C129.041 17.8753 127.304 18.3578 126.155 18.8324L125.938 18.922L125.101 22.8515H121.538V19.6874L130.383 15.7399C133.526 15.7482 135.33 16.1716 136.385 17.2421C137.452 18.3257 137.87 20.1905 137.87 23.451V33.506C137.87 34.6306 137.96 35.4285 138.125 36.0619C138.293 36.7031 138.532 37.1555 138.8 37.5882L138.931 37.7993H141.321L141.433 38.7907ZM133.934 34.7645L131.61 36.3849L131.553 36.4247C130.892 36.8881 129.591 37.7991 128.052 37.7991C127.225 37.7991 126.364 37.5388 125.71 36.8783C125.054 36.2157 124.66 35.2056 124.66 33.8137C124.66 32.6717 124.929 31.5114 125.805 30.6273L125.868 30.564L133.934 27.1936V34.7645Z" fill="white"/>
<path fill-rule="evenodd" clip-rule="evenodd" d="M97.8568 19.9128C95.8099 22.0348 94.6856 24.931 94.6856 28.6837C94.6856 35.4442 99.0825 40.4804 105.534 40.499C109.392 39.8652 112.404 38.4743 114.451 36.3516C116.498 34.2294 117.623 31.3331 117.623 27.6064C117.623 20.8438 113.224 15.7594 106.776 15.7399C102.916 16.3991 99.9042 17.7903 97.8568 19.9128ZM105.468 17.3624C103.226 17.3624 101.555 18.5216 100.466 20.3856C99.3893 22.2293 98.8747 24.7665 98.8747 27.6065C98.8747 30.6009 99.6412 33.3971 101.013 35.4588C102.389 37.5257 104.395 38.8767 106.84 38.8767C109.057 38.8767 110.727 37.7165 111.822 35.8616C112.905 34.0249 113.433 31.5006 113.433 28.6839C113.433 25.3611 112.643 22.546 111.251 20.5479C109.852 18.5403 107.843 17.3624 105.468 17.3624Z" fill="white"/>
</g>
<defs>
<clipPath id="clip0_2124_1138">
<rect width="142" height="50" fill="white"/>
</clipPath>
</defs>
</svg>
